<?xml version="1.0" encoding="UTF-8"?>
<svg width="96px" height="96px" viewBox="0 0 96 96" version="1.1" xmlns="http://www.w3.org/2000/svg" xmlns:xlink="http://www.w3.org/1999/xlink">
    <!-- Generator: Sketch 52.6 (67491) - http://www.bohemiancoding.com/sketch -->
    <title>insta</title>
    <desc>Created with Sketch.</desc>
    <g id="Page-1" stroke="none" stroke-width="1" fill="none" fill-rule="evenodd">
        <path d="M48,0 C21.490272,0 0,21.490272 0,48 C0,74.509728 21.490272,96 48,96 C74.509728,96 96,74.509728 96,48 C96,21.490272 74.509728,0 48,0 Z M32.0984941,25 L65.8992471,25 C69.8321412,25 73,27.8281882 73,31.3419294 L73,66.6580706 C73,70.1718118 69.8321412,73 65.8992471,73 L32.0984941,73 C28.1656,73 25,70.1718824 25,66.6580706 L25,31.3419294 C25,27.8281882 28.1656,25 32.0984941,25 Z M60,28.7301331 L60,34.2698669 C60,35.2288143 60.7733556,36 61.73205,36 L67.2703231,36 C68.2290176,36 69,35.2288909 69,34.2698669 L69,28.7301331 C69,27.7711857 68.2290942,27 67.2703231,27 L61.73205,27 C60.7733556,27 60,27.7711091 60,28.7301331 Z M58.928,33.949024 C58.975616,33.983008 59.024672,34.016608 59.072,34.050976 L59.072,33.949024 L58.928,33.949024 Z M39,50 C39,55.5228667 43.4771333,60 49,60 C54.5228667,60 59,55.5228667 59,50 C59,44.4771333 54.5228667,40 49,40 C43.4771333,40 39,44.4771333 39,50 Z M28,43 L28,64.8029315 C28,67.1281074 29.8732,69 32.2,69 L65.8,69 C68.1268,69 70,67.1281074 70,64.8029315 L70,43.44377 L61.62842,43.44377 C62.50657,45.2705441 63,47.3171047 63,49.4792945 C63,57.1879103 56.74683,63.4367157 49.03283,63.4367157 C41.31883,63.4367157 35.06566,57.1879103 35.06566,49.4792945 C35.06566,47.1403381 35.64288,44.9364575 36.66033,43.00007 L28,43 Z" id="path2986" fill="#0399FF"></path>
    </g>
</svg>